# xmcd
#
# Track frame offsets:
#	150
#	21217
#	44757
#	57585
#	67195
#	89177
#	101257
#	128487
#	142132
#	163117
#	183730
#	208442
#	229547
#	242835
#	267892
#	281695
#	308430
#
# Disc length: 4261
#
# Revision: 1
# Processed by: cddbd v1.5.1PL0 Copyright (c) Steve Scherf et al.
# Submitted via: CDex 1.51
# Normalized: r0:TRMNUM
#
DISCID=0a10a311
DTITLE=10TH AVENUE JAZZ BAND - THE RAMPART TRAIN
DYEAR=1998
DGENRE=Jazz
TTITLE0=South Rampart Street Parade
TTITLE1=When I Grow Too Old to Dream
TTITLE2=Bye Bye blues
TTITLE3=Jersey Bounce
TTITLE4=St James Infirmary
TTITLE5=I'm Gettin' Sentimental Over You
TTITLE6=Hiawatha Rag
TTITLE7=A Wink And A Smile
TTITLE8=Milenberg Joys
TTITLE9=Le Marchand de Poissons (The Fish Vendor)
TTITLE10=I Want A Little Girl
TTITLE11=St Louis Blues March
TTITLE12=Along The Road To Gundagai
TTITLE13=12th Street Rag Medley
TTITLE14=I'm More Than Satisfied
TTITLE15=Toll Gate Blues
TTITLE16=Muskrat Ramble
EXTD=YEAR: 1998
EXTT0=
EXTT1=
EXTT2=
EXTT3=
EXTT4=
EXTT5=
EXTT6=
EXTT7=
EXTT8=
EXTT9=
EXTT10=
EXTT11=
EXTT12=
EXTT13=
EXTT14=
EXTT15=
EXTT16=
PLAYORDER=
